# xmcd
#
# Track frame offsets:
#	150
#	9895
#	20579
#	34355
#	45000
#	56780
#	69063
#	79748
#	91533
#	103669
#	114529
#	125587
#	137337
#	151097
#	163392
#	175145
#	187649
#	197548
#	206868
#	216635
#	229898
#	241968
#	252566
#	264393
#	277626
#
# Disc length: 3864 seconds
#
# Revision: 1
# Processed by: cddbd v1.5.2PL0 Copyright (c) Steve Scherf et al.
# Submitted via: audiograbber 1.83.01
#
DISCID=490f1619
DTITLE=Various Artist - Ultimate Country - CD1
DYEAR=2007
DGENRE=Country
TTITLE0=June Carter and Carl Smith - Times A'Wastin'
TTITLE1=Johnny Cash - Train Of Love
TTITLE2=Patsy Cline - A Church, A Courtroom And Then Goodbye
TTITLE3=Jim Reeves - Where Does A Broken Heart Go?
TTITLE4=Marty Robbins - Cryin' Cause I Love You
TTITLE5=Slim Withman - North Wind
TTITLE6=Faron Young - Foolish Heart
TTITLE7=Wanda Jackson - Silver Threads And Golden Needles
TTITLE8=Ray Price - Release Me
TTITLE9=Waylon Jennings - (That's What You Get) For Lovin' Me
TTITLE10=Hank Williams - I'll Never Get Out Of This World Alive
TTITLE11=Bill Monroe and his Blue Grass Boys - Raw Hide
TTITLE12=Stanley Brothers - The Angels Are Singing (In Heaven Tonight)
TTITLE13=Kitty Wells - Love Or Hate
TTITLE14=Chet Atkins - Have You Ever Been Lonely? (Have You Ever Been Blue?)
TTITLE15=Hank Snow - The Golden Rocket
TTITLE16=Eddy Arnold - I Wanna Play House With You
TTITLE17=efty Frizzell - Just Can't Live That Fast (Any More)
TTITLE18=Carl Perkins - Movie Magg
TTITLE19=Little Jimmy Dickens - Country Boy
TTITLE20=Red Foley - Tennessee Saturday Night
TTITLE21=Jimmy Newman - Diggy Liggy Lo
TTITLE22=Mercer Brothers - It Ain't No Use
TTITLE23=Willie Nelson - I Just Don't Understand
TTITLE24=Dolly Parton - Letter To Heaven
EXTD=YEAR: 2007
EXTT0=
EXTT1=
EXTT2=
EXTT3=
EXTT4=
EXTT5=
EXTT6=
EXTT7=
EXTT8=
EXTT9=
EXTT10=
EXTT11=
EXTT12=
EXTT13=
EXTT14=
EXTT15=
EXTT16=
EXTT17=
EXTT18=
EXTT19=
EXTT20=
EXTT21=
EXTT22=
EXTT23=
EXTT24=
PLAYORDER=
